<svg xmlns="http://www.w3.org/2000/svg" width="23.795" height="23.795" viewBox="0 0 23.795 23.795">
  <g id="Calendar" transform="translate(-24 -242)">
    <rect id="Rectangle_557" data-name="Rectangle 557" width="23.795" height="23.795" transform="translate(24 242)" fill="none"/>
    <path id="Path_149" data-name="Path 149" d="M2.974,7.436V20.821H20.821V7.436ZM19.334,2.974h2.974A1.405,1.405,0,0,1,23.8,4.462V22.308A1.405,1.405,0,0,1,22.308,23.8H1.487A1.405,1.405,0,0,1,0,22.308V4.462A1.405,1.405,0,0,1,1.487,2.974H4.462V1.487A1.405,1.405,0,0,1,5.949,0,1.405,1.405,0,0,1,7.436,1.487V2.974h8.923V1.487a1.487,1.487,0,0,1,2.974,0ZM17.847,17.847H14.872V14.872h2.974Zm-4.462,0H10.41V14.872h2.974Zm4.462-4.462H14.872V10.41h2.974Zm-4.462,0H10.41V10.41h2.974ZM8.923,17.847H5.949V14.872H8.923Z" transform="translate(24 242)" fill="#468a94" fill-rule="evenodd"/>
  </g>
</svg>
