<svg xmlns="http://www.w3.org/2000/svg" width="69.466" height="69.466" viewBox="0 0 69.466 69.466">
  <g id="Camera" transform="translate(-308 -380)">
    <rect id="Rectangle_252" data-name="Rectangle 252" width="69.466" height="69.466" transform="translate(308 380)" fill="none"/>
    <path id="Path_110" data-name="Path 110" d="M34.733,43.416a8.683,8.683,0,1,0-8.683-8.683A8.709,8.709,0,0,0,34.733,43.416Zm0-26.05A17.367,17.367,0,1,1,17.367,34.733,17.418,17.418,0,0,1,34.733,17.367Zm26.05,47.758H8.683A8.572,8.572,0,0,1,2.6,62.52,8.572,8.572,0,0,1,0,56.441V17.367A8.709,8.709,0,0,1,8.683,8.683H15.63l6.512-6.512A7.19,7.19,0,0,1,27.352,0h15.2a6.972,6.972,0,0,1,4.776,2.171l6.512,6.512h6.947a8.709,8.709,0,0,1,8.683,8.683V56.441A8.709,8.709,0,0,1,60.783,65.125Z" transform="translate(308 384.342)" fill="#468a94" fill-rule="evenodd"/>
  </g>
</svg>
