<svg xmlns="http://www.w3.org/2000/svg" width="57.872" height="63.336" viewBox="0 0 57.872 63.336">
  <g id="Group_98" data-name="Group 98" transform="translate(-700.965 -186.184)">
    <path id="Path_657" data-name="Path 657" d="M705.879,192.464v8.6h2.046v-7.232l12.419,6.005v45.179l-12.419,4.505v-9.01h-2.046v9.01h-4.914V186.184h57.872V249.52h-4.779v-9.01h-2.181v9.01l-12.424-4.505V199.836l12.424-6.005v7.232h2.181v-8.6Z" transform="translate(0 0)" fill="#727270" fill-rule="evenodd"/>
    <path id="Path_658" data-name="Path 658" d="M725.49,205.945h0a.625.625,0,0,1,.545.683v4.367c0,.411-.272.821-.545.821h0c-.277,0-.55-.409-.55-.821v-4.367a.625.625,0,0,1,.55-.683Z" transform="translate(15.605 12.862)" fill="#468a94" fill-rule="evenodd"/>
    <rect id="Rectangle_1468" data-name="Rectangle 1468" width="2.181" height="7.777" transform="translate(751.877 208.981)" fill="#fefefe"/>
    <rect id="Rectangle_1469" data-name="Rectangle 1469" width="2.181" height="7.78" transform="translate(751.877 224.813)" fill="#fefefe"/>
    <path id="Path_659" data-name="Path 659" d="M711.927,205.945h0a.625.625,0,0,1,.545.683v4.367c0,.411-.272.821-.545.821h0c-.272,0-.545-.409-.545-.821v-4.367a.625.625,0,0,1,.545-.683Z" transform="translate(6.78 12.862)" fill="#468a94" fill-rule="evenodd"/>
    <rect id="Rectangle_1470" data-name="Rectangle 1470" width="2.046" height="7.78" transform="translate(705.879 224.813)" fill="#fefefe"/>
    <rect id="Rectangle_1471" data-name="Rectangle 1471" width="2.046" height="7.777" transform="translate(705.879 208.981)" fill="#fefefe"/>
  </g>
</svg>
