<svg xmlns="http://www.w3.org/2000/svg" width="75.53" height="71.901" viewBox="0 0 75.53 71.901">
  <g id="Group_91" data-name="Group 91" transform="translate(-169.332 -293.94)">
    <path id="Path_255" data-name="Path 255" d="M219.968,334.539a3.329,3.329,0,0,1-5.112,0,3.616,3.616,0,0,1,5.112-5.114,3.331,3.331,0,0,1,0,5.114Zm-39.724-9.719,2.219-12.1c.68-1.194,1.361-1.705,2.213-1.705h26.085c.852,0,1.536.511,2.217,1.705l1.538,12.1Zm-.342,9.719a3.331,3.331,0,0,1-5.114,0,3.582,3.582,0,1,1,5.114,0Zm42.623-9.719-4.774-16.538c-.683-1.365-1.363-2.048-2.215-2.048H178.2c-.511,0-1.363.683-2.044,2.048l-3.584,16.538h-.34c-1.874,0-2.9.852-2.9,2.217v14.15c0,1.536,1.025,2.388,2.9,2.388h.68v4.947a4.751,4.751,0,0,0,1.025,3.064,3.175,3.175,0,0,0,2.73,1.2H178.2a3.99,3.99,0,0,0,2.9-1.2,4.893,4.893,0,0,0,1.194-3.064v-4.947H212.3v4.947a4.363,4.363,0,0,0,1.194,3.064,3.732,3.732,0,0,0,2.9,1.2h1.532a3.392,3.392,0,0,0,2.732-1.2,4.749,4.749,0,0,0,1.023-3.064v-4.947h.85c1.874,0,2.9-.852,2.9-2.388v-14.15c0-1.365-1.027-2.217-2.9-2.217Z" transform="translate(0 13.058)" fill="#727270" fill-rule="evenodd"/>
    <path id="Path_256" data-name="Path 256" d="M191.218,294.231a11.9,11.9,0,0,0-6.308,3.753,8.641,8.641,0,0,0-2.557,5.114,13.049,13.049,0,0,0,.171,5.8l6.648-6.648,5.627.511,1.023,6.137-6.308,6.31a7.379,7.379,0,0,0,5.456.511c3.409-.852,6.308-5.454,8.52-8.182l23.532,23.7,4.26-4.26-27.962-28.3c-3.751-3.749-7.16-5.456-12.1-4.436Z" transform="translate(13.578 0)" fill="#468a94" fill-rule="evenodd"/>
  </g>
</svg>
