<svg xmlns="http://www.w3.org/2000/svg" width="62" height="66.213" viewBox="0 0 62 66.213">
  <path id="Path_235" data-name="Path 235" d="M648.68,214.3h0c-.2-.1-.5,0-.8,0h-.6a.745.745,0,0,1-.4-.2V200.553a16.994,16.994,0,0,1-6.021,4.515c.8-.1.4.7.4,1a56.1,56.1,0,0,1-.1,8.228H627.312c2.407-3.111,4.414-6.521,7.024-9.329,7.424,1.4,13.341-4.715,12.54-11.135a2.2,2.2,0,0,0-.7-1.807c-2.908,1-3.411,4.413-5.92,5.819-1.5-.5-3.511-.7-5.214-1.1-.7-1.906.1-3.713-.7-5.419.9-.9.2-1.7,1-2.808.8-.9,2.108-2.106,1.7-3.511-7.624-1.3-12.84,7.223-9.629,14.446-2.908,3.713-6.12,7.122-9.031,10.934.906,1.306,2.911,2.309,2.911,3.914-.8-.2-1.2-1.1-1.707-1.605-3.207-3.511-6.92-6.922-10.129-10.134-.5-.5-1.007-1.7-1.809-1.1-.5,1.2.906.9,1.308,1.2,1.5,1.2.9,2.208.5,3.913a33.8,33.8,0,0,1-1.1,4.816c.4,1.2,2.105,2.006,2.308,2.91h-4.215c.5-2.91,2.207-5.517,2-8.728,1.907-1.605-.7-2.911-2.105-3.212,1.7-5.617,3.513-11.135,5.016-16.854,1.608-1.405,1.907-4.013,2.108-6.82a15.445,15.445,0,0,0-2.508-.6c-.2,1.4-1.2,2.408-1.5,3.712-.3,1.1-.1,2.509-.4,3.712-1.1,5.619-3.712,10.935-4.918,16.354-1.5-1-4.113-.6-3.609,1.5-2.008,2.908-2.208,7.524-3.816,10.935a2.873,2.873,0,0,0-1.3,0h-.5a.846.846,0,0,1-.6-.2c.8-23.374-5.62-22.07-5.62-6.42V214.3h-1.9v30h62v-30Z" transform="translate(-586.784 -178.082)" fill="#727270" fill-rule="evenodd"/>
</svg>
