<svg xmlns="http://www.w3.org/2000/svg" width="53.31" height="64.221" viewBox="0 0 53.31 64.221">
  <g id="Group_87" data-name="Group 87" transform="translate(-704.189 -294.081)">
    <path id="Path_236" data-name="Path 236" d="M730.952,306.374c9.374,0,18.288,6.912,7.224,17.052a9.3,9.3,0,0,1-14.6,0c-11.058-10.14-2.15-17.052,7.371-17.052Zm25.815,43.17c-.769-5.838-2.3-14.287-4.458-15.978-2.15-1.382-9.216-6.912-12.29-8.605h0c-.154,0-.154,0-.307-.152a17.136,17.136,0,0,0,5.53-13.213c0-1.689,0-3.378-.152-4.915-.307-3.071-.92-5.838-2.462-7.988-2-2.767-5.524-4.612-11.677-4.612-6.3,0-9.83,1.845-11.825,4.612-1.538,2.15-2.152,4.917-2.458,7.988-.152,1.537-.152,3.226-.152,4.915a17.485,17.485,0,0,0,5.528,13.366h0c-3.075,1.693-10.446,7.223-12.6,8.605-2.607,1.843-4.149,12.288-4.762,17.667l3.688-.615c0-.154.152-.154.152,0l4.144.922H737.1v-1.382a.84.84,0,0,1,.459-.766,1.172,1.172,0,0,1,.767-.308h17.515a1.172,1.172,0,0,1,.767.308.15.15,0,0,1,.154.152Z" transform="translate(0.426 0)" fill="#727270" fill-rule="evenodd"/>
    <path id="Path_237" data-name="Path 237" d="M754.424,327.592H742.132v-1.228h12.292Zm0,2.767H742.132v-1.228h12.292Zm-13.979-5.686a2.17,2.17,0,0,0-.92.308c-.154.307-.31.459-.31.769v1.382H713.1l-4.144-.922H708.8l-4.3.613c-.152.154-.307.308-.307.461v2.152c0,.307.154.461.307.461l4.3.767h.152l4.144-.922v-.154h26.12v1.382a1.173,1.173,0,0,0,.31.769,2.169,2.169,0,0,0,.92.308h15.826a1.172,1.172,0,0,0,.767-.308.847.847,0,0,0,.461-.769v-5.221c0-.31-.154-.463-.461-.769a1.172,1.172,0,0,0-.767-.308Z" transform="translate(0 26.252)" fill="#468a94" fill-rule="evenodd"/>
  </g>
</svg>
