<svg id="Group_76" data-name="Group 76" xmlns="http://www.w3.org/2000/svg" width="73.069" height="72.881" viewBox="0 0 73.069 72.881">
  <path id="Path_225" data-name="Path 225" d="M1066.758,548.086a1.818,1.818,0,0,0-2.635,0l-1.885,1.694c-2.829-2.822-5.277-5.28-7.541-7.726l8.3-8.291,3.579-3.584a13.358,13.358,0,0,0,14.512-2.827,13.675,13.675,0,0,0,3.4-13.2l-.379-1.315-9.048,9.043-7.728-7.539,9.237-9.043-1.32-.376a13.557,13.557,0,0,0-13.195,3.39,13.365,13.365,0,0,0-2.829,14.512l-3.579,3.584h0l-8.483,8.293c-4.147-4.149-9.237-9.235-16.774-16.78h0l-3.771-6.214c0-.187-.187-.187-.187-.376l-6.219-4.149c-.191-.376-.757-.187-.946,0l-2.827,2.822c-.189.189-.376.764,0,.944l4.151,6.221c.187.189.187.189.376.189l6.217,3.773h0c7.354,7.35,12.44,12.438,16.965,16.769l-8.483,8.489h0l-3.581,3.388a13.8,13.8,0,0,0-14.514,3.014,13.34,13.34,0,0,0-3.39,13.006l.376,1.32,9.233-9.043,7.541,7.537-9.234,9.239,1.318.376a13.221,13.221,0,0,0,13.194-3.583,13.46,13.46,0,0,0,3.016-14.325l3.392-3.577,8.483-8.487c2.451,2.455,4.9,4.9,7.726,7.735l-1.883,1.694a1.713,1.713,0,0,0-.563,1.32,2.133,2.133,0,0,0,.563,1.5l19.416,19.229a2.024,2.024,0,0,0,1.318.565,2.13,2.13,0,0,0,1.507-.565l6.6-6.6a2.025,2.025,0,0,0,.566-1.318,2.134,2.134,0,0,0-.566-1.507Z" transform="translate(-1013.67 -504.419)" fill="#727270" fill-rule="evenodd"/>
  <path id="Path_226" data-name="Path 226" d="M1051.376,541.877,1036.3,526.99l1.7-1.516,14.892,14.9Z" transform="translate(-984.716 -477.476)" fill="#468a94" fill-rule="evenodd"/>
  <path id="Path_227" data-name="Path 227" d="M1049.807,543.441l-15.08-14.891,1.7-1.5,14.89,14.889Z" transform="translate(-986.726 -475.463)" fill="#468a94" fill-rule="evenodd"/>
</svg>
