<svg xmlns="http://www.w3.org/2000/svg" width="82.48" height="65.238" viewBox="0 0 82.48 65.238">
  <path id="Path_234" data-name="Path 234" d="M766.328,627.55H780.9a.956.956,0,0,1,.886.888v.355a.815.815,0,0,1-.886.712H766.328v3.023l-14.759,6.4v1.064a3.562,3.562,0,0,1-3.552,3.552H723.84l-1.419,5.869,7.286.71c-2.133,4.089-2.84,7.826-2.133,11.379h-8l-1.062,4.444h5.332a4.4,4.4,0,0,1,4.448,4.44v4.626a4.41,4.41,0,0,1-4.448,4.446H704.111a4.41,4.41,0,0,1-4.446-4.446v-4.626a4.132,4.132,0,0,1,1.606-3.373l5.51-23.468h-3.913a3.566,3.566,0,0,1-3.558-3.552V617.947a3.608,3.608,0,0,1,3.558-3.728h45.149a3.6,3.6,0,0,1,3.552,3.728v1.073l14.759,6.4v2.133Zm-31.291-6.4h5.34a1.952,1.952,0,0,1,1.774,1.956h0a1.955,1.955,0,0,1-1.774,1.956h-5.34a1.972,1.972,0,0,1-1.95-1.956h0a1.969,1.969,0,0,1,1.95-1.956Zm0,5.512h5.34a1.95,1.95,0,0,1,1.774,1.954h0a1.949,1.949,0,0,1-1.774,1.952h-5.34a1.967,1.967,0,0,1-1.95-1.952h0a1.967,1.967,0,0,1,1.95-1.954Zm0,5.51h5.34a1.952,1.952,0,0,1,1.774,1.954h0a1.948,1.948,0,0,1-1.774,1.952h-5.34a1.966,1.966,0,0,1-1.95-1.952h0a1.969,1.969,0,0,1,1.95-1.954Zm0,5.506h5.34a1.956,1.956,0,0,1,1.774,1.959h0a1.948,1.948,0,0,1-1.774,1.954h-5.34a1.966,1.966,0,0,1-1.95-1.954h0a1.973,1.973,0,0,1,1.95-1.959Zm0-22.038h5.34a1.949,1.949,0,0,1,1.774,1.952h0a1.788,1.788,0,0,1-1.774,1.782h-5.34a1.826,1.826,0,0,1-1.95-1.782h0a1.967,1.967,0,0,1,1.95-1.952Z" transform="translate(-699.31 -614.219)" fill="#727270" fill-rule="evenodd"/>
</svg>
