<svg xmlns="http://www.w3.org/2000/svg" width="58.443" height="73.935" viewBox="0 0 58.443 73.935">
  <g id="JNJqjD" transform="translate(-1967.198 -272.682)">
    <g id="Group_95" data-name="Group 95" transform="translate(1967.198 272.682)">
      <path id="Path_263" data-name="Path 263" d="M2025.617,301.926c0,9.134-.022,18.268.024,27.4.007,1.313-.333,1.863-1.723,1.774-1.643-.1-3.3,0-4.945-.031-.8-.014-1.12.292-1.105,1.1.031,1.827-.018,3.654.014,5.48.014.86-.335,1.2-1.186,1.187-1.782-.028-3.565.029-5.346-.017-.923-.025-1.274.306-1.245,1.24.051,1.692-.037,3.388.03,5.078.045,1.105-.364,1.478-1.463,1.467-4.233-.043-8.465-.017-12.7-.017-9,0-18-.025-27,.027-1.339.008-1.779-.389-1.776-1.742q.052-27.468.027-54.937c0-1.617.126-1.727,1.766-1.74,1.516-.012,3.031-.045,4.544.009,1.023.036,1.46-.32,1.416-1.385-.062-1.468-.017-2.94-.015-4.41,0-1.967.006-1.969,2.038-1.974,1.47,0,2.942-.038,4.411.01.989.032,1.35-.369,1.319-1.342-.049-1.558-.017-3.119-.01-4.678.008-1.659.079-1.742,1.729-1.743q11.5-.01,22.991,0,8.086,0,16.173,0c2.023,0,2.027.006,2.027,1.974Q2025.619,288.292,2025.617,301.926ZM2007.874,317.4c0-8.423-.028-16.845.029-25.267.009-1.37-.421-1.727-1.758-1.722q-17.378.072-34.758,0c-1.325-.006-1.768.334-1.764,1.714q.065,25.2.03,50.4c0,1.762.008,1.767,1.794,1.767q17.313,0,34.625,0c1.792,0,1.8-.006,1.8-1.76Q2007.878,329.969,2007.874,317.4Zm7.716-7.8q0-12.562,0-25.123c0-1.788-.006-1.792-1.743-1.793q-16.5,0-33.009,0c-3.622,0-3.622,0-3.615,3.647,0,1.855,0,1.861,1.825,1.862q14.433,0,28.865,0c2.205,0,2.207,0,2.207,2.185q0,22.316-.021,44.634c0,1.139.279,1.67,1.492,1.538a19.778,19.778,0,0,1,2.136-.014c1.857,0,1.862,0,1.862-1.813Q2015.592,322.163,2015.59,309.6Zm7.731-7.623q0-12.5,0-25c0-1.854,0-1.861-1.833-1.861q-16.514,0-33.026,0c-3.494,0-3.494,0-3.482,3.55.006,1.766.006,1.773,1.783,1.774q14.306,0,28.612,0c2.976,0,2.493.052,2.5,2.562q.02,21.059.007,42.118c0,3.711,0,3.655,3.726,3.72,1.335.023,1.76-.345,1.75-1.722C2023.291,318.737,2023.321,310.358,2023.321,301.979Z" transform="translate(-1967.198 -272.682)" fill="#727270"/>
      <path id="Path_264" data-name="Path 264" d="M1987.766,295.812c-4.051,0-8.1-.009-12.152.007-.839,0-1.5-.057-1.474-1.175.02-1.031.633-1.12,1.417-1.119q12.286.008,24.573,0c.841,0,1.461.088,1.455,1.2-.006,1.2-.772,1.084-1.532,1.084Z" transform="translate(-1966.404 -270.298)" fill="#468a94"/>
      <path id="Path_265" data-name="Path 265" d="M1987.837,302.765c-3.918,0-7.836.017-11.754-.013-.8-.007-1.916.4-1.935-1.1-.02-1.594,1.162-1.166,2-1.168q11.688-.035,23.376.008c.791,0,2.023-.544,2.044,1.091.021,1.733-1.28,1.148-2.108,1.159C1995.586,302.8,1991.712,302.765,1987.837,302.765Z" transform="translate(-1966.403 -269.51)" fill="#727270"/>
      <path id="Path_266" data-name="Path 266" d="M1987.971,307.426c4.1,0,8.193.01,12.289-.008.842,0,1.354.187,1.322,1.185-.026.795-.325,1.129-1.115,1.117-1.424-.021-2.85,0-4.275,0q-10.218,0-20.437-.009c-.62,0-1.4.226-1.582-.769-.2-1.062.166-1.507,1.375-1.511C1979.688,307.418,1983.83,307.426,1987.971,307.426Z" transform="translate(-1966.406 -268.708)" fill="#727270"/>
      <path id="Path_267" data-name="Path 267" d="M1987.917,316.678c-4.141,0-8.282-.016-12.424.012-.952.007-1.42-.305-1.345-1.313.049-.649.318-.985.986-.983,1.024,0,2.048-.009,3.073-.01q10.887,0,21.773.011c.652,0,1.49-.255,1.586.889.088,1.051-.314,1.419-1.361,1.409C1996.109,316.655,1992.013,316.678,1987.917,316.678Z" transform="translate(-1966.404 -267.913)" fill="#727270"/>
      <path id="Path_268" data-name="Path 268" d="M1987.691,323.638q-6.011,0-12.022,0c-.8,0-1.522.017-1.53-1.129-.008-1.118.656-1.173,1.489-1.173q12.223.015,24.445,0c.791,0,1.506-.039,1.512,1.127.008,1.137-.645,1.175-1.47,1.172C1995.974,323.632,1991.833,323.638,1987.691,323.638Z" transform="translate(-1966.404 -267.115)" fill="#727270"/>
      <path id="Path_269" data-name="Path 269" d="M1987.825,328.29c4.1,0,8.191.006,12.286,0,.811,0,1.488-.007,1.473,1.148s-.721,1.141-1.515,1.141q-12.219,0-24.439,0c-.83,0-1.5-.065-1.492-1.18,0-1.161.743-1.112,1.533-1.111Q1981.749,328.3,1987.825,328.29Z" transform="translate(-1966.404 -266.321)" fill="#727270"/>
    </g>
  </g>
</svg>
