<svg xmlns="http://www.w3.org/2000/svg" width="71.485" height="93.203" viewBox="0 0 71.485 93.203">
  <g id="Group_90" data-name="Group 90" transform="translate(-2096.055 -371.177)">
    <g id="Group_89" data-name="Group 89" transform="translate(2096.055 371.177)">
      <path id="Path_249" data-name="Path 249" d="M2096.055,388.561c.226-.453.448-.907.677-1.359a8.5,8.5,0,0,1,4.717-3.984,2.008,2.008,0,0,1,.751-.082c2.279-.024,4.56-.013,6.838-.083.455-.014.628-.145.589-.6a4.137,4.137,0,0,1,.037-.947,2.281,2.281,0,0,1,2.408-2.192c1.6-.132,3.2-.077,4.794-.075.463,0,.6-.178.637-.6a7.728,7.728,0,0,1,5.326-6.932,7.6,7.6,0,0,1,8.285,1.851,8.027,8.027,0,0,1,2.483,5.048c.058.473.227.632.716.632,1.757,0,3.514.055,5.271.077a1.044,1.044,0,0,1,.717.3,3.372,3.372,0,0,1,1.192,2.827c-.021.482.137.629.618.621,1.963-.033,3.926.053,5.888.043,3.249-.016,6.935,3.164,7.017,6.575.034,1.422.16,2.843.161,4.268q.007,16.887.013,33.775c0,.709,0,.713-.677.551a25.739,25.739,0,0,0-3.85-.533c-.664-.056-.667-.039-.667-.726q0-14.8-.006-29.595c0-2.231-.047-4.462-.166-6.692-.092-1.717-.5-2.3-2.359-2.393-1.832-.089-3.673-.022-5.51-.035-.322,0-.412.178-.435.44-.043.473-.078.946-.115,1.418a2.133,2.133,0,0,1-2.341,2.24c-2.422.123-4.844.083-7.265.085q-8.836.008-17.671-.015c-.838,0-1.677-.044-2.514-.093a1.93,1.93,0,0,1-1.9-1.727,9.04,9.04,0,0,1-.088-1.846c.011-.358-.093-.51-.48-.507q-3.111.022-6.223,0a1.189,1.189,0,0,0-.811.424,2.64,2.64,0,0,0-1.01,2.094c-.191,16.23-.056,32.46-.051,48.69,0,2.754.032,5.509.077,8.263.01.6.048,1.2.1,1.8a2.148,2.148,0,0,0,2.208,1.869c1.961.127,3.924.1,5.886.1q10.784.01,21.567.006c.726,0,.731,0,.927.7a26.369,26.369,0,0,0,1.591,3.806c.291.635.271.653-.41.664-8.058.13-16.118.1-24.177.053-2.117-.011-4.239-.019-6.355-.21a7.221,7.221,0,0,1-5.08-2.99,15.46,15.46,0,0,1-1.328-2.3Zm33.143-9.316a3.62,3.62,0,0,0-3.727-3.669,3.7,3.7,0,0,0-3.653,3.626,3.766,3.766,0,0,0,3.623,3.82A3.725,3.725,0,0,0,2129.2,379.245Z" transform="translate(-2096.055 -371.177)" fill="#727270"/>
      <path id="Path_250" data-name="Path 250" d="M2159.518,482.227a26.686,26.686,0,0,1-3.566-.761,16.947,16.947,0,0,1-6.217-3.556,17.229,17.229,0,0,1-5.862-10.263,21,21,0,0,1-.12-4.829,16.114,16.114,0,0,1,4-9.5,16.769,16.769,0,0,1,11.539-6.211,17.585,17.585,0,0,1,18.175,10.574,14.192,14.192,0,0,1,1.275,6.125,19.067,19.067,0,0,1-.356,5.1,17.778,17.778,0,0,1-10.151,11.907,16.628,16.628,0,0,1-5.115,1.364.965.965,0,0,0-.181.054Zm14.954-17.562a13.251,13.251,0,1,0-13.573,13.257A13.233,13.233,0,0,0,2174.472,464.665Z" transform="translate(-2107.261 -389.024)" fill="#727270"/>
      <path id="Path_251" data-name="Path 251" d="M2143.108,444.428h-11.446a2.134,2.134,0,0,1-1.812-1.438,2.055,2.055,0,0,1,2.013-2.8c3.312-.057,6.624-.127,9.935-.05,2.121.049,4.242.018,6.363.07.488.011.975.06,1.463.075a1.941,1.941,0,0,1,1.863,2.362,1.8,1.8,0,0,1-1.748,1.683A49.458,49.458,0,0,1,2143.108,444.428Z" transform="translate(-2103.984 -387.4)" fill="#727270"/>
      <path id="Path_252" data-name="Path 252" d="M2136.763,455.756q2.677,0,5.353,0c.5,0,.539.055.277.488a25.756,25.756,0,0,0-1.7,3.358.675.675,0,0,1-.726.486c-2.88-.048-5.762-.076-8.644-.1a.884.884,0,0,1-.642-.288,2.487,2.487,0,0,1-.926-2.153,1.944,1.944,0,0,1,1.834-1.791Z" transform="translate(-2103.984 -391.081)" fill="#727270"/>
      <path id="Path_253" data-name="Path 253" d="M2155.408,467.283a2.009,2.009,0,0,1,1.231-1.965,2.078,2.078,0,0,1,2.4.47,35.775,35.775,0,0,1,2.422,3.043c.571.719.57.736,1.113.031q2.647-3.443,5.282-6.895a12.591,12.591,0,0,1,1.3-1.513,1.916,1.916,0,0,1,2.559-.055,1.709,1.709,0,0,1,.684,2.341,21.441,21.441,0,0,1-2.209,3.312c-2.059,2.787-4.141,5.558-6.274,8.288a2.628,2.628,0,0,1-.538.531,1.866,1.866,0,0,1-2.851-.252,31.013,31.013,0,0,1-2.312-2.889c-.811-1.092-1.661-2.156-2.4-3.3A1.843,1.843,0,0,1,2155.408,467.283Z" transform="translate(-2110.022 -392.065)" fill="#727270"/>
    </g>
    <path id="Path_254" data-name="Path 254" d="M2138.2,409.044h5.542a.365.365,0,0,1,.337.338v.135a.311.311,0,0,1-.337.271H2138.2v1.149l-5.613,2.434v.4a1.356,1.356,0,0,1-1.351,1.351h-9.194l-.539,2.231,2.771.27a6.473,6.473,0,0,0-.812,4.327h-3.043l-.4,1.69h2.027a1.675,1.675,0,0,1,1.692,1.688v1.759a1.676,1.676,0,0,1-1.692,1.69h-7.5a1.676,1.676,0,0,1-1.691-1.69v-1.759a1.57,1.57,0,0,1,.611-1.282l2.1-8.924h-1.488a1.357,1.357,0,0,1-1.354-1.351v-8.383a1.373,1.373,0,0,1,1.354-1.418h17.169a1.372,1.372,0,0,1,1.351,1.418v.408l5.613,2.433v.811Zm-11.9-2.433h2.031a.742.742,0,0,1,.674.743h0a.744.744,0,0,1-.674.744H2126.3a.749.749,0,0,1-.741-.744h0a.748.748,0,0,1,.741-.743Zm0,2.1h2.031a.741.741,0,0,1,.674.743h0a.742.742,0,0,1-.674.742H2126.3a.747.747,0,0,1-.741-.742h0a.747.747,0,0,1,.741-.743Zm0,2.1h2.031a.742.742,0,0,1,.674.743h0a.741.741,0,0,1-.674.742H2126.3a.747.747,0,0,1-.741-.742h0a.748.748,0,0,1,.741-.743Zm0,2.093h2.031a.744.744,0,0,1,.674.746h0a.741.741,0,0,1-.674.743H2126.3a.747.747,0,0,1-.741-.743h0a.75.75,0,0,1,.741-.746Zm0-8.381h2.031a.742.742,0,0,1,.674.742h0a.68.68,0,0,1-.674.678H2126.3a.694.694,0,0,1-.741-.678h0a.747.747,0,0,1,.741-.742Z" transform="translate(-3.921 -7.718)" fill="#468a94" fill-rule="evenodd"/>
  </g>
</svg>
