<svg xmlns="http://www.w3.org/2000/svg" width="71.485" height="93.202" viewBox="0 0 71.485 93.202">
  <g id="Group_94" data-name="Group 94" transform="translate(-1953.95 -371.177)">
    <g id="Group_93" data-name="Group 93" transform="translate(1953.95 371.177)">
      <g id="Group_92" data-name="Group 92">
        <path id="Path_257" data-name="Path 257" d="M1953.95,388.561c.225-.453.448-.907.677-1.359a8.494,8.494,0,0,1,4.717-3.984,2.007,2.007,0,0,1,.751-.082c2.279-.024,4.56-.013,6.838-.083.455-.014.628-.145.59-.6a4.124,4.124,0,0,1,.037-.947,2.281,2.281,0,0,1,2.408-2.192c1.6-.132,3.2-.077,4.794-.075.463,0,.6-.178.637-.6a7.728,7.728,0,0,1,5.326-6.932,7.6,7.6,0,0,1,8.285,1.851,8.026,8.026,0,0,1,2.483,5.048c.057.473.227.632.716.632,1.757,0,3.514.055,5.271.077a1.044,1.044,0,0,1,.717.3,3.371,3.371,0,0,1,1.192,2.827c-.022.482.136.629.617.621,1.963-.033,3.926.053,5.888.043,3.249-.016,6.935,3.164,7.017,6.575.034,1.422.16,2.843.161,4.268q.007,16.887.013,33.775c0,.709,0,.713-.677.551a25.735,25.735,0,0,0-3.85-.533c-.664-.056-.667-.039-.667-.726q0-14.8-.006-29.595c0-2.231-.047-4.462-.166-6.692-.092-1.717-.5-2.3-2.359-2.393-1.832-.089-3.673-.022-5.509-.035-.322,0-.412.178-.435.44-.042.473-.078.946-.115,1.418a2.134,2.134,0,0,1-2.341,2.241c-2.422.123-4.843.083-7.265.085q-8.835.008-17.671-.015c-.838,0-1.677-.044-2.514-.093a1.93,1.93,0,0,1-1.9-1.727,9.04,9.04,0,0,1-.088-1.846c.011-.358-.093-.51-.48-.507q-3.111.022-6.223,0a1.189,1.189,0,0,0-.811.424,2.64,2.64,0,0,0-1.01,2.094c-.191,16.23-.056,32.46-.051,48.69,0,2.754.032,5.509.077,8.263.01.6.048,1.2.1,1.8a2.147,2.147,0,0,0,2.208,1.869c1.961.127,3.924.1,5.886.1q10.784.01,21.567.006c.726,0,.731,0,.927.7a26.34,26.34,0,0,0,1.591,3.806c.291.635.271.653-.409.664-8.059.13-16.118.1-24.177.053-2.117-.011-4.239-.019-6.355-.21a7.221,7.221,0,0,1-5.08-2.99,15.441,15.441,0,0,1-1.327-2.3Zm33.143-9.316a3.62,3.62,0,0,0-3.727-3.669,3.7,3.7,0,0,0-3.653,3.626,3.766,3.766,0,0,0,3.623,3.82A3.725,3.725,0,0,0,1987.093,379.245Z" transform="translate(-1953.95 -371.177)" fill="#727270"/>
        <path id="Path_258" data-name="Path 258" d="M2017.412,482.227a26.689,26.689,0,0,1-3.565-.761,16.946,16.946,0,0,1-6.218-3.556,17.228,17.228,0,0,1-5.862-10.263,21,21,0,0,1-.12-4.829,16.115,16.115,0,0,1,4-9.5,16.77,16.77,0,0,1,11.539-6.211,17.585,17.585,0,0,1,18.175,10.574,14.192,14.192,0,0,1,1.275,6.125,19.077,19.077,0,0,1-.356,5.1,17.779,17.779,0,0,1-10.151,11.907,16.63,16.63,0,0,1-5.115,1.364.979.979,0,0,0-.18.054Zm14.955-17.562a13.251,13.251,0,1,0-13.573,13.257A13.233,13.233,0,0,0,2032.367,464.665Z" transform="translate(-1965.156 -389.024)" fill="#727270"/>
        <path id="Path_259" data-name="Path 259" d="M1997.431,444.428h-23.052a2.134,2.134,0,0,1-1.812-1.438,2.055,2.055,0,0,1,2.014-2.8c3.311-.057,18.229-.127,21.54-.051,2.121.049,4.242.018,6.363.07.488.011.975.06,1.463.075a1.941,1.941,0,0,1,1.863,2.362,1.8,1.8,0,0,1-1.748,1.683A49.461,49.461,0,0,1,1997.431,444.428Z" transform="translate(-1958.307 -387.4)" fill="#727270"/>
        <path id="Path_260" data-name="Path 260" d="M1991.086,455.756q2.677,0,5.353,0c.505,0,.539.055.278.488a25.722,25.722,0,0,0-1.7,3.358.676.676,0,0,1-.726.486c-2.88-.048-17.369-.076-20.25-.1a.886.886,0,0,1-.642-.288,2.487,2.487,0,0,1-.926-2.153,1.944,1.944,0,0,1,1.834-1.791Z" transform="translate(-1958.307 -391.082)" fill="#727270"/>
        <path id="Path_261" data-name="Path 261" d="M2023.158,470.222a3.637,3.637,0,1,1-3.5-6.378,3.637,3.637,0,1,1,3.5,6.378Zm4.14-9.047h0a8.235,8.235,0,0,0-1.533-1.2l.214-1.442a.87.87,0,0,0-.644-1.042l-2.116-.613a.936.936,0,0,0-1.1.521l-.552,1.349a7.209,7.209,0,0,0-1.993.184l-.859-1.2a.919.919,0,0,0-1.2-.276l-1.932,1.042a.968.968,0,0,0-.43,1.165l.552,1.35a6.953,6.953,0,0,0-1.35,1.626l-1.379-.246a.945.945,0,0,0-1.042.675l-.613,2.116a.89.89,0,0,0,.521,1.1l1.257.553a9.4,9.4,0,0,0,.215,2.084l-1.074.767a.944.944,0,0,0-.245,1.227l1.042,1.932a.931.931,0,0,0,1.165.4l1.227-.491a7.175,7.175,0,0,0,1.6,1.288l-.216,1.257a.965.965,0,0,0,.645,1.1l2.116.582a.908.908,0,0,0,1.1-.551l.49-1.135a7.716,7.716,0,0,0,2.208-.215l.7,1.012a.907.907,0,0,0,1.2.307l1.932-1.074a.913.913,0,0,0,.43-1.165l-.491-1.165a8.407,8.407,0,0,0,1.38-1.779l1.318.215a.942.942,0,0,0,1.043-.644l.613-2.146a.936.936,0,0,0-.521-1.1l-1.257-.521a8.1,8.1,0,0,0-.276-2.085l1.1-.767a.952.952,0,0,0,.277-1.227l-1.043-1.932a.942.942,0,0,0-1.165-.4Z" transform="translate(-1967.441 -391.339)" fill="#468a94" fill-rule="evenodd"/>
      </g>
    </g>
    <path id="Path_262" data-name="Path 262" d="M1990.012,409.735c3.854,0,7.524,2.845,2.967,7.02a3.826,3.826,0,0,1-6,0C1982.427,412.58,1986.09,409.735,1990.012,409.735Zm-10.682,17.411c.313-2.309.91-5.567,1.828-6.217.443-.291,1.422-.994,2.455-1.728,1.025-.719,2.1-1.468,2.73-1.812a7.22,7.22,0,0,1-2.271-5.506c0-.7,0-1.392.061-2.019a6.651,6.651,0,0,1,1.01-3.288c.826-1.139,2.279-1.9,4.871-1.9,2.531,0,3.984.757,4.8,1.9a6.73,6.73,0,0,1,1.017,3.288c.061.627.061,1.323.061,2.019a7.037,7.037,0,0,1-2.279,5.437c.061.069.061.069.13.069,1.261.7,4.167,2.967,5.054,3.54.841.665,1.461,3.839,1.789,6.217Z" transform="translate(-5.973 -7.885)" fill="#468a94" fill-rule="evenodd"/>
    <line id="Line_191" data-name="Line 191" x1="21.258" transform="translate(1973.357 417.312)" fill="none"/>
  </g>
</svg>
