<svg xmlns="http://www.w3.org/2000/svg" width="106.315" height="112.348" viewBox="0 0 106.315 112.348">
  <g id="Group_83" data-name="Group 83" transform="translate(-874 -586.259)">
    <path id="Path_232" data-name="Path 232" d="M934.937,606.858l-1.872,1.509-.659-.769-8.221-11.4L923.4,595l-.864.98L901.79,625.3a2.025,2.025,0,0,0,1.872,3.182l37.753-4.123a1.719,1.719,0,0,0,1.206-2.717l-8.024-11.09,2.018-1.625" transform="translate(8.93 2.848)" fill="#727270" fill-rule="evenodd"/>
    <path id="Path_233" data-name="Path 233" d="M929.391,611.652a24.177,24.177,0,0,1,1.534,1.971,7.162,7.162,0,0,0,6.8-.437l21.045-13.373a7.111,7.111,0,0,0,2.083-9.866l-.219-.329a7,7,0,0,0-9.865-2.19L929.829,600.8a7.139,7.139,0,0,0-3.289,7.016,15.7,15.7,0,0,1,1.208,1.643" transform="translate(17.098)" fill="#468a94" fill-rule="evenodd"/>
    <rect id="Rectangle_224" data-name="Rectangle 224" width="33.67" height="17.677" rx="1.665" transform="translate(874 680.93)" fill="#727270"/>
    <rect id="Rectangle_225" data-name="Rectangle 225" width="33.67" height="17.677" rx="1.665" transform="translate(910.322 680.93)" fill="#727270"/>
    <g id="Group_81" data-name="Group 81" transform="translate(890.835 660.601)">
      <rect id="Rectangle_226" data-name="Rectangle 226" width="33.67" height="17.677" rx="1.665" fill="#727270"/>
      <rect id="Rectangle_227" data-name="Rectangle 227" width="33.67" height="17.677" rx="1.665" transform="translate(36.322)" fill="#727270"/>
    </g>
    <g id="Group_82" data-name="Group 82" transform="translate(908.996 640.273)">
      <rect id="Rectangle_228" data-name="Rectangle 228" width="33.67" height="17.677" rx="1.665" fill="#727270"/>
    </g>
    <rect id="Rectangle_229" data-name="Rectangle 229" width="33.67" height="17.677" rx="1.665" transform="translate(946.644 680.93)" fill="#727270"/>
  </g>
</svg>
