<svg xmlns="http://www.w3.org/2000/svg" width="53.21" height="33.983" viewBox="0 0 53.21 33.983">
  <g id="m51SwJ.tif" transform="translate(-1212.854 -52.248)">
    <g id="Group_99" data-name="Group 99" transform="translate(1212.854 52.248)">
      <path id="Path_660" data-name="Path 660" d="M1266.064,77.953c-.577.754-1.21.721-1.719-.088-2.384-3.793-4.759-7.591-7.246-11.319a9.165,9.165,0,0,0-1.861-2.01,1.909,1.909,0,0,0-1.494-.433c-.875.1-1.759.113-2.637.177-.318.024-.68-.093-.822.412-.153.545.119.735.519.951,1.294.7,2.569,1.43,3.865,2.123.376.2.442.387.224.766-.6,1.043-.594,1.066-1.626.5-2.526-1.4-5.044-2.814-7.569-4.216a6.809,6.809,0,0,0-.94-.432.886.886,0,0,0-1.2.394.86.86,0,0,0,.123,1.214c.964.946,2.037,1.767,3.079,2.623q2.687,2.206,5.394,4.388a4.762,4.762,0,0,1,1.389,2.15,11.307,11.307,0,0,0,1.065,2.358,5.371,5.371,0,0,0,3.8,2.536,2.323,2.323,0,0,1,.405.087.9.9,0,0,1,.626.961.829.829,0,0,1-.864.734,6.215,6.215,0,0,1-3.124-1,6.3,6.3,0,0,1-1.327-1.075c-.188-.206-.307-.247-.536-.032a24.34,24.34,0,0,1-14.172,6.268,28.793,28.793,0,0,1-15.417-2.157A19.842,19.842,0,0,1,1215.1,76.6a13.233,13.233,0,0,1,.494-15.451,20.61,20.61,0,0,1,8.341-6.493,25.981,25.981,0,0,1,8.227-2.22c7.138-.706,13.823.55,19.722,4.864a16.153,16.153,0,0,1,5.329,6.45,8.981,8.981,0,0,0,1.006,1.312c1.991,2.894,3.852,5.871,5.726,8.841.7,1.111,1.409,2.219,2.113,3.328Zm-14.371,1.022a3.019,3.019,0,0,1-1.887-.152,20.8,20.8,0,0,1-3.7-1.866,2.089,2.089,0,0,1-.73-2.861c.3-.527.124-.725-.262-1.022a2.285,2.285,0,0,1-.992-2.485c.065-.264,0-.362-.283-.407-1.177-.192-2.354-.387-3.523-.623a2.024,2.024,0,0,1-1.629-2.39q.542-3.248,1.1-6.493a2.121,2.121,0,0,1,2.718-1.9q3.139.552,6.284,1.084a2.062,2.062,0,0,1,1.933,2.17c.015.348.145.455.471.435.846-.05,1.692-.08,2.538-.124.164-.009.384.065.462-.133.061-.156-.113-.275-.2-.4a17.033,17.033,0,0,0-4.9-4.274,25.719,25.719,0,0,0-12.86-3.521,26.853,26.853,0,0,0-9.49,1.439,19.9,19.9,0,0,0-9.427,6.341,11.58,11.58,0,0,0-1.107,13.212,16.313,16.313,0,0,0,5.911,5.855,25.55,25.55,0,0,0,12.793,3.582,27.028,27.028,0,0,0,11.057-1.949A19.669,19.669,0,0,0,1251.693,78.976Zm-8.237-10.691a17.944,17.944,0,0,1-1.331-1.345,2.456,2.456,0,0,1-.257-2.776,2.685,2.685,0,0,1,2.459-1.618,4.555,4.555,0,0,1,2.191.709c.562.3,1.116.623,1.675.935.183.1.353.182.4-.139.1-.63.207-1.26.316-1.889.062-.359-.128-.5-.446-.559-2.093-.358-4.185-.712-6.275-1.082-.414-.073-.551.091-.616.472-.354,2.093-.723,4.183-1.094,6.273-.056.315.041.512.359.568C1241.669,67.982,1242.5,68.121,1243.456,68.285Zm7.482,6.034c-1.552-1.256-3-2.425-4.441-3.592a.319.319,0,0,0-.465,0,.49.49,0,0,0-.165.512.741.741,0,0,0,.271.368c1.111.932,2.332,1.715,3.511,2.554A1.6,1.6,0,0,0,1250.937,74.318Zm-.128,2.957a5.752,5.752,0,0,0,1.214-.382c.182-.082.172-.217.125-.389-.161-.586-.622-.414-.979-.353a3.438,3.438,0,0,1-2.909-.751c-.253-.207-.534-.382-.807-.564-.141-.094-.295-.225-.446-.016a.453.453,0,0,0-.043.533.987.987,0,0,0,.4.319,28.323,28.323,0,0,0,3.027,1.473A4.241,4.241,0,0,0,1250.81,77.275Z" transform="translate(-1212.854 -52.248)" fill="#468a94"/>
      <path id="Path_661" data-name="Path 661" d="M1236.708,69.477a17.009,17.009,0,0,1-2.131,8.237c-.315.568-.709.756-1.169.575a.873.873,0,0,1-.423-1.326,15.689,15.689,0,0,0,1.569-4.156,15.166,15.166,0,0,0-1.3-10.226c-.087-.17-.177-.338-.26-.508-.286-.59-.163-1.086.327-1.328a.913.913,0,0,1,1.249.492,16.43,16.43,0,0,1,1.348,3.138A17.033,17.033,0,0,1,1236.708,69.477Z" transform="translate(-1213.777 -52.635)" fill="#468a94"/>
      <path id="Path_662" data-name="Path 662" d="M1232.6,69.292a13.048,13.048,0,0,1-1.677,6.748c-.33.585-.8.762-1.276.506a.924.924,0,0,1-.283-1.353,11.174,11.174,0,0,0,1.474-5.34,11.035,11.035,0,0,0-1.287-5.49c-.1-.183-.2-.364-.286-.552a.865.865,0,0,1,.338-1.2.884.884,0,0,1,1.207.371,12.68,12.68,0,0,1,1.372,3.29A10.969,10.969,0,0,1,1232.6,69.292Z" transform="translate(-1213.606 -52.721)" fill="#468a94"/>
      <path id="Path_663" data-name="Path 663" d="M1228.692,69.756a9.071,9.071,0,0,1-1.3,4.684.9.9,0,1,1-1.542-.883,7.6,7.6,0,0,0-.022-7.8c-.328-.589-.235-1.077.237-1.346.5-.283.972-.1,1.317.507A9.188,9.188,0,0,1,1228.692,69.756Z" transform="translate(-1213.444 -52.803)" fill="#468a94"/>
      <path id="Path_664" data-name="Path 664" d="M1224.9,69.86a5.247,5.247,0,0,1-.925,3.06.894.894,0,1,1-1.51-.933,3.966,3.966,0,0,0,0-4.449.891.891,0,1,1,1.512-.932A5.447,5.447,0,0,1,1224.9,69.86Z" transform="translate(-1213.289 -52.888)" fill="#468a94"/>
    </g>
  </g>
</svg>
