<svg xmlns="http://www.w3.org/2000/svg" width="68.663" height="67.701" viewBox="0 0 68.663 67.701">
  <g id="Group_75" data-name="Group 75" transform="translate(-930.839 -502.337)">
    <path id="Path_221" data-name="Path 221" d="M949.566,532.4a8.673,8.673,0,1,0-8.67-8.67,8.724,8.724,0,0,0,8.67,8.67Z" transform="translate(9.845 12.446)" fill="#468a94" fill-rule="evenodd"/>
    <path id="Path_222" data-name="Path 222" d="M973.645,522.589l-.98,16.849a.584.584,0,0,1-.162.329l-6.873,7.2h-12.6c-6.052-1.15-12.27-2.13-18.486-3.277-3.768,0-5.074,4.095-1.963,6.382l16.357,2.949v14.888a2.029,2.029,0,0,0,1.965,2.125h17.016a2.033,2.033,0,0,0,1.969-2.125V553.024l7.851-8.349a7.472,7.472,0,0,0,2.125-5.074l1.308-15.539c.984.982,2.134,1.961,3.275,3.107l-.98.987a1.231,1.231,0,0,0-.326.815c0,.327.164.489.326.815l10.467,10.475c.326.158.5.327.823.327s.487-.168.817-.327l3.6-3.6a1.24,1.24,0,0,0,.333-.815c0-.327-.168-.493-.333-.821L988.7,524.554c-.329-.166-.5-.329-.823-.329a1.23,1.23,0,0,0-.817.329l-.982.98c-5.4-5.565-7.851-7.853-17.344-17.346h0l-1.963-3.269c0-.164,0-.164-.162-.164l-3.275-2.3a.5.5,0,0,0-.653,0l-1.473,1.48c-.164.162-.164.325,0,.653l2.294,3.269.159.164,3.438,1.967h0c2.786,2.777,5.076,5.066,7.035,7.036-.491.815-.653,2.612-.491,5.561Z" transform="translate(0 0)" fill="#727270" fill-rule="evenodd"/>
    <path id="Path_223" data-name="Path 223" d="M967.761,523.8l-8.179-8.185.982-.816,8.015,8.018Z" transform="translate(28.139 12.204)" fill="#67cdfd" fill-rule="evenodd"/>
    <path id="Path_224" data-name="Path 224" d="M966.686,524.71l-8.015-8.019.816-.98,8.022,8.179Z" transform="translate(27.247 13.095)" fill="#67cdfd" fill-rule="evenodd"/>
  </g>
</svg>
